<?xml version="1.0" encoding="utf-8"?>
<!-- Svg Vector Icons : http://www.onlinewebfonts.com/icon -->
<!DOCTYPE svg PUBLIC "-//W3C//DTD SVG 1.1//EN" "http://www.w3.org/Graphics/SVG/1.1/DTD/svg11.dtd">
<svg version="1.1" xmlns="http://www.w3.org/2000/svg" xmlns:xlink="http://www.w3.org/1999/xlink" x="0px" y="0px" viewBox="0 0 1000 1000" enable-background="new 0 0 1000 1000" xml:space="preserve">
<metadata> Svg Vector Icons : http://www.onlinewebfonts.com/icon </metadata>
<g><path d="M449.3,314.1c-111.8,0-202.8,90.9-202.8,202.8c0,111.8,90.9,202.8,202.8,202.8s202.8-90.9,202.8-202.8C652.1,405.1,561.1,314.1,449.3,314.1z M449.3,652.1c-74.5,0-135.2-60.6-135.2-135.2c0-74.5,60.6-135.2,135.2-135.2c74.5,0,135.2,60.6,135.2,135.2C584.5,591.4,523.9,652.1,449.3,652.1z"/><path d="M550.7,821H111.4c-18.6,0-33.8-15.1-33.8-33.8V246.6c0-18.6,15.2-33.8,33.8-33.8h101.4c18.7,0,33.8-15.1,33.8-33.8s-15.1-33.8-33.8-33.8H111.4C55.5,145.2,10,190.7,10,246.6v540.7c0,55.9,45.5,101.4,101.4,101.4h439.3c18.7,0,33.8-15.1,33.8-33.8C584.5,836.1,569.4,821,550.7,821z"/><path d="M483.1,212.8H821c18.7,0,33.8,15.2,33.8,33.8v270.3c0,18.7,15.1,33.8,33.8,33.8c18.7,0,33.8-15.1,33.8-33.8V246.6c0-55.9-45.5-101.4-101.4-101.4H483.1c-18.7,0-33.8,15.1-33.8,33.8S464.4,212.8,483.1,212.8z"/><path d="M719.7,297.2c0,28,22.7,50.7,50.7,50.7s50.7-22.7,50.7-50.7c0-28-22.7-50.7-50.7-50.7S719.7,269.2,719.7,297.2z"/><path d="M280.3,111.4h135.2c18.7,0,33.8-15.1,33.8-33.8c0-18.7-15.1-33.8-33.8-33.8H280.3c-18.7,0-33.8,15.1-33.8,33.8C246.6,96.3,261.7,111.4,280.3,111.4z"/><path d="M956.2,753.4H854.8V652.1c0-18.7-15.1-33.8-33.8-33.8c-18.7,0-33.8,15.1-33.8,33.8v101.4H685.9c-18.7,0-33.8,15.1-33.8,33.8c0,18.7,15.1,33.8,33.8,33.8h101.4v101.4c0,18.7,15.1,33.8,33.8,33.8c18.7,0,33.8-15.1,33.8-33.8V821h101.4c18.7,0,33.8-15.1,33.8-33.8C990,768.6,974.9,753.4,956.2,753.4z"/></g>
</svg>