<svg width="370" height="370" viewBox="0 0 370 370" xmlns="http://www.w3.org/2000/svg">
<g clip-path="url(#clip0_1065_261)">
<path d="M184.743 357.351C181.265 357.351 177.945 355.902 175.579 353.353L27.909 194.193C27.871 194.152 27.833 194.111 27.796 194.07C9.871 174.223 0 147.921 0 120.008C0 92.0942 9.871 65.7932 27.796 45.9472L30.04 43.4632C48.286 23.2622 72.648 12.1362 98.639 12.1362C124.63 12.1362 148.993 23.2622 167.24 43.4642L184.743 62.8442L202.246 43.4652C220.492 23.2632 244.854 12.1372 270.846 12.1372C296.838 12.1372 321.2 23.2632 339.447 43.4662L341.688 45.9442C359.616 65.7952 369.487 92.0962 369.487 120.009C369.487 147.922 359.615 174.224 341.691 194.07C341.654 194.113 341.616 194.154 341.578 194.195L193.907 353.355C191.541 355.901 188.221 357.351 184.743 357.351ZM46.295 177.252L184.743 326.471L323.191 177.251C351.676 145.648 351.658 94.2812 323.136 62.7022L320.897 60.2242C307.448 45.3332 289.673 37.1342 270.846 37.1342C252.018 37.1342 234.243 45.3332 220.798 60.2192L194.02 89.8692C191.651 92.4932 188.28 93.9902 184.745 93.9902C181.21 93.9902 177.839 92.4932 175.469 89.8692L148.69 60.2212C135.244 45.3342 117.47 37.1352 98.642 37.1352C79.814 37.1352 62.039 45.3332 48.594 60.2202L46.35 62.7042C17.828 94.2832 17.809 145.65 46.295 177.252Z"/>
</g>
<defs>
<clipPath id="clip0_1065_261">
<rect width="369.486" height="369.486"/>
</clipPath>
</defs>
</svg>
