<svg width="24" height="24" viewBox="0 0 24 24" fill="none" xmlns="http://www.w3.org/2000/svg">
<path d="M18.9335 0L2.53331 16.4002L0 24L7.59975 21.4667L24 5.06653L18.9335 0ZM13.867 7.09308L14.8803 8.10637L5.18616 17.8005L4.17286 16.7873L13.867 7.09308ZM3.35306 21.3718L2.62823 20.647L3.47269 18.1137L5.88633 20.5274L3.35306 21.3718ZM7.2127 19.8271L6.19941 18.8138L15.8936 9.11967L16.9069 10.133L7.2127 19.8271ZM17.9202 9.11977L14.8802 6.07983L15.8935 5.06653L18.9335 8.10647L17.9202 9.11977ZM16.9068 4.05319L18.9334 2.02655L21.9734 5.06653L19.9468 7.09313L16.9068 4.05319Z" fill="#505050"/>
</svg>
