<svg display="none" xmlns="http://www.w3.org/2000/svg">
    <symbol id="viewed" viewBox="0 0 18448 9512" style="shape-rendering:geometricPrecision; text-rendering:geometricPrecision; image-rendering:optimizeQuality; fill-rule:evenodd; clip-rule:evenodd">
        <g><path d="M9282 8187c-600,0 -936,0 -1531,-142 -476,-113 -544,-149 -957,-296 -149,-53 -297,-119 -433,-187l-317 -158c-38,-22 -71,-35 -106,-53 -486,-253 -1077,-687 -1493,-1015l-982 -892 -685 -727c-309,-351 -267,-228 87,-555 28,-26 44,-46 71,-73 34,-32 47,-35 80,-64 343,-305 1130,-940 1514,-1167 126,-74 232,-154 360,-230 489,-290 661,-376 1173,-615l637 -256c625,-227 1573,-431 2250,-431 708,0 832,-5 1557,115 736,122 1556,425 2224,759 213,107 567,289 777,420 526,330 918,595 1407,985l655 542c57,58 102,87 158,144 53,55 114,87 155,148 -24,103 -275,288 -375,418l-407 400c-62,62 -113,98 -173,159l-509 456c-66,51 -117,100 -181,151 -754,597 -893,692 -1710,1186 -538,325 -1477,699 -2097,830 -337,71 -753,148 -1149,148zm-457 -8187l774 0c276,10 544,30 788,62 929,123 1751,331 2618,669 102,40 202,77 298,120l1115 528c53,27 75,45 129,72l650 373c934,575 1342,902 2162,1542l776 666c50,51 281,244 313,292 -9,35 -169,205 -205,242l-952 950 -1363 1188c-603,480 -1169,883 -1831,1282 -501,301 -946,521 -1476,758l-632 248c-622,233 -1518,437 -2187,493 -150,13 -297,22 -443,27l-705 0c-516,-21 -1023,-90 -1554,-210 -122,-28 -234,-59 -342,-90 -389,-114 -593,-180 -968,-330l-602 -263 -844 -453 -1282 -865 -1287 -1091c-97,-77 -238,-227 -330,-319l-958 -987c-26,-29 -26,-36 -51,-65l-353 -396c-29,-30 -72,-79 -83,-119 29,-43 63,-75 107,-109l538 -486c42,-42 68,-54 108,-93l334 -286c422,-332 681,-557 1147,-886 80,-56 163,-118 245,-172 42,-28 76,-52 119,-83 333,-240 786,-489 1132,-698 91,-55 176,-95 272,-147 51,-27 75,-44 130,-72l413 -206c99,-46 179,-79 278,-125 906,-423 2155,-790 3176,-903 256,-29 537,-48 826,-58z"/><path d="M6457 4785c0,757 310,1456 818,1964 1786,1786 4760,485 4760,-1964 0,-202 -39,-562 -101,-692 -120,10 -2531,661 -2638,663 14,-51 159,-234 194,-282 70,-97 129,-181 199,-276l600 -828c63,-86 576,-764 593,-833 -214,-143 -430,-274 -701,-366 -71,-24 -129,-45 -196,-64 -537,-151 -1111,-134 -1635,46 -242,83 -484,208 -688,349l-387 320c-92,92 -230,271 -311,380 -297,400 -507,1023 -507,1583z"/></g>
    </symbol>

    <symbol id="calendar" viewBox="0 0 60 60" style="enable-background:new 0 0 60 60;">
        <g><path d="M57,4h-7V1c0-0.553-0.447-1-1-1h-7c-0.553,0-1,0.447-1,1v3H19V1c0-0.553-0.447-1-1-1h-7c-0.553,0-1,0.447-1,1v3H3C2.447,4,2,4.447,2,5v11v43c0,0.553,0.447,1,1,1h54c0.553,0,1-0.447,1-1V16V5C58,4.447,57.553,4,57,4z M43,2h5v3v3h-5V5V2z M12,2h5v3v3h-5V5V2z M4,6h6v3c0,0.553,0.447,1,1,1h7c0.553,0,1-0.447,1-1V6h22v3c0,0.553,0.447,1,1,1h7c0.553,0,1-0.447,1-1V6h6v9H4V6zM4,58V17h52v41H4z"/><path d="M38,23h-7h-2h-7h-2h-9v9v2v7v2v9h9h2h7h2h7h2h9v-9v-2v-7v-2v-9h-9H38z M31,25h7v7h-7V25z M38,41h-7v-7h7V41z M22,34h7v7h-7V34z M22,25h7v7h-7V25z M13,25h7v7h-7V25z M13,34h7v7h-7V34z M20,50h-7v-7h7V50z M29,50h-7v-7h7V50z M38,50h-7v-7h7V50z M47,50h-7v-7h7V50z M47,41h-7v-7h7V41z M47,25v7h-7v-7H47z"/></g>
    </symbol>

    <symbol id="logout" viewBox="0 0 24 24" fill="none" stroke="currentColor" stroke-width="2" stroke-linecap="round" stroke-linejoin="round">
        <path d="M9 21H5a2 2 0 0 1-2-2V5a2 2 0 0 1 2-2h4"></path>
        <polyline points="16 17 21 12 16 7"></polyline>
        <line x1="21" y1="12" x2="9" y2="12">
        </line>
    </symbol>

    <symbol id="search" viewBox="0 0 487.95 487.95">
        <g>
            <path d="M481.8,453l-140-140.1c27.6-33.1,44.2-75.4,44.2-121.6C386,85.9,299.5,0.2,193.1,0.2S0,86,0,191.4s86.5,191.1,192.9,191.1
                c45.2,0,86.8-15.5,119.8-41.4l140.5,140.5c8.2,8.2,20.4,8.2,28.6,0C490,473.4,490,461.2,481.8,453z M41,191.4
                c0-82.8,68.2-150.1,151.9-150.1s151.9,67.3,151.9,150.1s-68.2,150.1-151.9,150.1S41,274.1,41,191.4z"/>
        </g>
    </symbol>

    <symbol id="categories" viewBox="0 0 24 24">
        <path d="M11.646 15.146L5.854 9.354a.5.5 0 01.353-.854h11.586a.5.5 0 01.353.854l-5.793 5.792a.5.5 0 01-.707 0z"/>
    </symbol>

    <symbol id="cross" viewBox="0 0 42 42">
        <path fill-rule="evenodd" d="M21.002,26.588l10.357,10.604c1.039,1.072,1.715,1.083,2.773,0l2.078-2.128
        c1.018-1.042,1.087-1.726,0-2.839L25.245,21L36.211,9.775c1.027-1.055,1.047-1.767,0-2.84l-2.078-2.127
        c-1.078-1.104-1.744-1.053-2.773,0L21.002,15.412L10.645,4.809c-1.029-1.053-1.695-1.104-2.773,0L5.794,6.936
        c-1.048,1.073-1.029,1.785,0,2.84L16.759,21L5.794,32.225c-1.087,1.113-1.029,1.797,0,2.839l2.077,2.128
        c1.049,1.083,1.725,1.072,2.773,0L21.002,26.588z"/>
    </symbol>
</svg>
