<svg display="none" xmlns="http://www.w3.org/2000/svg">
    <symbol id="logout" viewBox="0 0 24 24" fill="none" stroke="currentColor" stroke-width="2" stroke-linecap="round" stroke-linejoin="round">
        <path d="M9 21H5a2 2 0 0 1-2-2V5a2 2 0 0 1 2-2h4"></path>
        <polyline points="16 17 21 12 16 7"></polyline>
        <line x1="21" y1="12" x2="9" y2="12">
        </line>
    </symbol>

    <symbol id="search" viewBox="0 0 487.95 487.95">
        <g>
            <path d="M481.8,453l-140-140.1c27.6-33.1,44.2-75.4,44.2-121.6C386,85.9,299.5,0.2,193.1,0.2S0,86,0,191.4s86.5,191.1,192.9,191.1
                c45.2,0,86.8-15.5,119.8-41.4l140.5,140.5c8.2,8.2,20.4,8.2,28.6,0C490,473.4,490,461.2,481.8,453z M41,191.4
                c0-82.8,68.2-150.1,151.9-150.1s151.9,67.3,151.9,150.1s-68.2,150.1-151.9,150.1S41,274.1,41,191.4z"/>
        </g>
    </symbol>

    <symbol id="categories" viewBox="0 0 24 24">
        <path d="M11.646 15.146L5.854 9.354a.5.5 0 01.353-.854h11.586a.5.5 0 01.353.854l-5.793 5.792a.5.5 0 01-.707 0z"/>
    </symbol>

    <symbol id="cross" viewBox="0 0 42 42">
        <path fill-rule="evenodd" d="M21.002,26.588l10.357,10.604c1.039,1.072,1.715,1.083,2.773,0l2.078-2.128
        c1.018-1.042,1.087-1.726,0-2.839L25.245,21L36.211,9.775c1.027-1.055,1.047-1.767,0-2.84l-2.078-2.127
        c-1.078-1.104-1.744-1.053-2.773,0L21.002,15.412L10.645,4.809c-1.029-1.053-1.695-1.104-2.773,0L5.794,6.936
        c-1.048,1.073-1.029,1.785,0,2.84L16.759,21L5.794,32.225c-1.087,1.113-1.029,1.797,0,2.839l2.077,2.128
        c1.049,1.083,1.725,1.072,2.773,0L21.002,26.588z"/>
    </symbol>

    <symbol id="plus" viewBox="0 0 455 455" style="enable-background:new 0 0 455 455;">
        <polygon points="455,212.5 242.5,212.5 242.5,0 212.5,0 212.5,212.5 0,212.5 0,242.5 212.5,242.5 212.5,455 242.5,455 242.5,242.5 
	    455,242.5 "/>
    </symbol>

    <symbol id="stroke-plus" viewBox="0 0 23 24">
        <path d="M11.741 2V22M21.3706 12H2.11133H21.3706Z" stroke="inherit" stroke-width="inherit" stroke-linecap="round" stroke-linejoin="round"/>
    </symbol>

    <symbol id="view" viewBox="0 0 17 10">
        <path d="M8.50054 3.04627C10.4315 3.04627 11.9969 4.60292 11.9969 6.52314C11.9969 8.44335 10.4315 10 8.50054 10C6.56954 10 5.00416 8.44335 5.00416 6.52314C5.00416 4.60292 6.56954 3.04627 8.50054 3.04627ZM8.50054 0C12.5332 0 16.0143 2.73803 16.9802 6.57508C17.0681 6.92435 16.8547 7.27836 16.5035 7.36579C16.1522 7.45322 15.7962 7.24096 15.7083 6.89169C14.8877 3.63155 11.9282 1.30382 8.50054 1.30382C5.07141 1.30382 2.111 3.63355 1.29176 6.89562C1.20403 7.24493 0.848156 7.45738 0.496883 7.37015C0.14561 7.28291 -0.0680368 6.92902 0.0196895 6.57971C0.983895 2.74039 4.46614 0 8.50054 0Z" fill="inherit"/>
    </symbol>

    <symbol id="star" viewBox="0 0 17 17">
        <path d="M13.379 17C13.2827 17 13.1859 16.9759 13.0973 16.9271L8.50003 14.3951L3.90273 16.9271C3.6987 17.0394 3.45151 17.0208 3.26507 16.8788C3.07858 16.7369 2.98524 16.4964 3.02418 16.2583L3.90215 10.8954L0.18286 7.09735C0.0178261 6.92882 -0.0415609 6.67672 0.0296453 6.44714C0.100852 6.21752 0.290347 6.05016 0.518449 6.01539L5.65842 5.23299L7.95707 0.353599C8.05904 0.137065 8.26956 0 8.50003 0C8.73046 0 8.94103 0.137065 9.04294 0.353599L11.3416 5.23299L16.4815 6.01539C16.7096 6.05016 16.8991 6.21747 16.9703 6.44714C17.0416 6.67672 16.9822 6.92882 16.8171 7.09735L13.0978 10.8954L13.9758 16.2584C14.0147 16.4963 13.9213 16.737 13.7349 16.8789C13.6294 16.9592 13.5046 17 13.379 17ZM1.90668 7.08614L4.97542 10.2198C5.11813 10.3655 5.18328 10.5755 5.14952 10.7812L4.4251 15.2061L8.21821 13.1169C8.39463 13.0197 8.60534 13.0197 8.78176 13.1169L12.5749 15.206L11.8504 10.7812C11.8167 10.5754 11.8818 10.3655 12.0245 10.2198L15.0933 7.08614L10.8525 6.44055C10.6553 6.4105 10.4848 6.2808 10.3966 6.09354L8.50008 2.06765L6.60353 6.09354C6.51537 6.28075 6.34481 6.4105 6.14761 6.44055L1.90668 7.08614Z" fill="inherit"/>
    </symbol>

    <symbol id="calendar" viewBox="0 0 20 20">
        <path d="M19.7253 2.86299H17.8428V1.42423C17.8428 0.638911 17.2039 0 16.4186 0C15.6332 0 14.9943 0.638911 14.9943 1.42423V2.86305H5.00567V1.42423C5.00567 0.638911 4.36676 0 3.58143 0C2.79611 0 2.1572 0.638911 2.1572 1.42423V2.86305H0.274706C0.123225 2.86299 0 2.98622 0 3.13776V19.1817C0 19.3332 0.123282 19.4565 0.274706 19.4565H19.7253C19.8768 19.4565 20 19.3332 20 19.1817V3.13776C20 2.98622 19.8768 2.86299 19.7253 2.86299ZM15.8489 1.59514C15.8489 1.2805 16.1039 1.02545 16.4186 1.02545C16.7332 1.02545 16.9883 1.2805 16.9883 1.59514V3.03396C16.9883 3.3486 16.7332 3.60365 16.4186 3.60365C16.1039 3.60365 15.8489 3.3486 15.8489 3.03396V1.59514ZM3.01174 1.59514C3.01174 1.2805 3.26679 1.02545 3.58143 1.02545C3.89608 1.02545 4.15113 1.2805 4.15113 1.59514V3.03396C4.15113 3.3486 3.89608 3.60365 3.58143 3.60365C3.26679 3.60365 3.01174 3.3486 3.01174 3.03396V1.59514ZM6.04673 15.1155C6.04673 15.4924 5.74126 15.7979 5.3644 15.7979H3.24173C2.86487 15.7979 2.5594 15.4925 2.5594 15.1155V12.9928C2.5594 12.6159 2.86487 12.3103 3.24173 12.3103H5.36446C5.74126 12.3103 6.04678 12.6158 6.04678 12.9928L6.04673 15.1155ZM6.04673 9.41857C6.04673 9.79537 5.74126 10.101 5.3644 10.101H3.24173C2.86487 10.101 2.5594 9.79559 2.5594 9.41857V7.29584C2.5594 6.91898 2.86487 6.61346 3.24173 6.61346H5.36446C5.74126 6.61346 6.04678 6.91893 6.04678 7.29584L6.04673 9.41857ZM11.7437 15.1155C11.7437 15.4924 11.4383 15.7979 11.0613 15.7979H8.93866C8.56181 15.7979 8.25634 15.4925 8.25634 15.1155V12.9928C8.25634 12.6159 8.56181 12.3103 8.93866 12.3103H11.0614C11.4382 12.3103 11.7437 12.6158 11.7437 12.9928V15.1155ZM11.7437 9.41857C11.7437 9.79537 11.4383 10.101 11.0613 10.101H8.93866C8.56181 10.101 8.25634 9.79559 8.25634 9.41857V7.29584C8.25634 6.91898 8.56181 6.61346 8.93866 6.61346H11.0614C11.4382 6.61346 11.7437 6.91893 11.7437 7.29584V9.41857ZM17.4407 15.1155C17.4407 15.4924 17.1352 15.7979 16.7583 15.7979H14.6356C14.2587 15.7979 13.9532 15.4925 13.9532 15.1155V12.9928C13.9532 12.6159 14.2586 12.3103 14.6356 12.3103H16.7583C17.1351 12.3103 17.4407 12.6158 17.4407 12.9928L17.4407 15.1155ZM17.4407 9.41857C17.4407 9.79537 17.1352 10.101 16.7583 10.101H14.6356C14.2587 10.101 13.9532 9.79559 13.9532 9.41857V7.29584C13.9532 6.91898 14.2586 6.61346 14.6356 6.61346H16.7583C17.1351 6.61346 17.4407 6.91893 17.4407 7.29584L17.4407 9.41857Z" fill="inherit"/>
    </symbol>

    <symbol id="geo" viewBox="0 0 14 20">
        <path d="M6 0C3.12726 0 0 3.12726 0 7C0 8.3503 0.431346 9.63965 1.03148 10.6992L5.59344 18.5947C5.87944 19.1104 6.45613 19.3683 7 19.3683C7.54392 19.3683 8.09243 19.1104 8.40656 18.5947L12.9685 10.7039C13.5733 9.64425 14 8.37834 14 7.00459C14 3.13195 10.8727 0 7 0ZM7 9.06765C5.59344 9.06765 4.44474 7.91895 4.44474 6.51239C4.44474 5.10583 5.59344 3.95713 7 3.95713C8.40656 3.95713 9.55526 5.10583 9.55526 6.51239C9.55526 7.92364 8.40656 9.06765 7 9.06765Z" fill="inherit"/>
    </symbol>

    <symbol id="star-selected" viewBox="0 0 17 17">
        <path d="M13.379 17C13.2827 17 13.1859 16.9759 13.0973 16.9271L8.50003 14.3951L3.90273 16.9271C3.6987 17.0394 3.45151 17.0208 3.26507 16.8788C3.07858 16.7369 2.98524 16.4964 3.02418 16.2583L3.90215 10.8954L0.18286 7.09735C0.0178261 6.92882 -0.0415609 6.67672 0.0296453 6.44714C0.100852 6.21752 0.290347 6.05016 0.518449 6.01539L5.65842 5.23299L7.95707 0.353599C8.05904 0.137065 8.26956 0 8.50003 0C8.73046 0 8.94103 0.137065 9.04294 0.353599L11.3416 5.23299L16.4815 6.01539C16.7096 6.05016 16.8991 6.21747 16.9703 6.44714C17.0416 6.67672 16.9822 6.92882 16.8171 7.09735L13.0978 10.8954L13.9758 16.2584C14.0147 16.4963 13.9213 16.737 13.7349 16.8789C13.6294 16.9592 13.5046 17 13.379 17Z" fill="inherit"/>
    </symbol>

    <symbol id="arrow-up" viewBox="0 0 18 10">
        <path d="M18 8.52174L16.4545 10L9 2.91304L1.54545 10L0 8.52174L9 0L18 8.52174Z" fill="inherit" fill-opacity="0.75"/>
    </symbol>

    <symbol id="pencil" viewBox="0 0 24 24">
        <path d="M18.9335 0L2.53331 16.4002L0 24L7.59975 21.4667L24 5.06653L18.9335 0ZM13.867 7.09308L14.8803 8.10637L5.18616 17.8005L4.17286 16.7873L13.867 7.09308ZM3.35306 21.3718L2.62823 20.647L3.47269 18.1137L5.88633 20.5274L3.35306 21.3718ZM7.2127 19.8271L6.19941 18.8138L15.8936 9.11967L16.9069 10.133L7.2127 19.8271ZM17.9202 9.11977L14.8802 6.07983L15.8935 5.06653L18.9335 8.10647L17.9202 9.11977ZM16.9068 4.05319L18.9334 2.02655L21.9734 5.06653L19.9468 7.09313L16.9068 4.05319Z" fill="inherit"/>
    </symbol>

    <symbol id="ok" viewBox="0 0 43 32">
        <path d="M42.8239 4.7034L16.1631 31.3642C15.9282 31.599 15.548 31.599 15.3137 31.3642L0.175714 16.2256C-0.0585713 15.9919 -0.0585713 15.6117 0.175714 15.3768L3.85405 11.6985C4.08888 11.4642 4.46912 11.4642 4.7034 11.6985L15.739 22.7335L38.2967 0.175714C38.5321 -0.0585713 38.9113 -0.0585713 39.1461 0.175714L42.8239 3.85405C43.0587 4.08833 43.0587 4.46802 42.8239 4.7034Z" fill="#505050"/><path d="M42.8239 4.7034L16.1631 31.3642C15.9282 31.599 15.548 31.599 15.3137 31.3642L0.175714 16.2256C-0.0585713 15.9919 -0.0585713 15.6117 0.175714 15.3768L3.85405 11.6985C4.08888 11.4642 4.46912 11.4642 4.7034 11.6985L15.739 22.7335L38.2967 0.175714C38.5321 -0.0585713 38.9113 -0.0585713 39.1461 0.175714L42.8239 3.85405C43.0587 4.08833 43.0587 4.46802 42.8239 4.7034Z" fill="inherit"/>
    </symbol>

    <symbol id="delete" viewBox="0 0 24 24">
        <path d="M10.5 9H9V18H10.5V9Z" fill="inherit"/>
        <path d="M15 9H13.5V18H15V9Z" fill="inherit"/>
        <path d="M3 4.5V6H4.5V21C4.5 21.3978 4.65804 21.7794 4.93934 22.0607C5.22064 22.342 5.60218 22.5 6 22.5H18C18.3978 22.5 18.7794 22.342 19.0607 22.0607C19.342 21.7794 19.5 21.3978 19.5 21V6H21V4.5H3ZM6 21V6H18V21H6Z" fill="inherit"/>
        <path d="M15 1.5H9V3H15V1.5Z" fill="inherit"/>
    </symbol>

    <symbol id="add-photo" viewBox="0 0 1000 1000">
        <g><path d="M449.3,314.1c-111.8,0-202.8,90.9-202.8,202.8c0,111.8,90.9,202.8,202.8,202.8s202.8-90.9,202.8-202.8C652.1,405.1,561.1,314.1,449.3,314.1z M449.3,652.1c-74.5,0-135.2-60.6-135.2-135.2c0-74.5,60.6-135.2,135.2-135.2c74.5,0,135.2,60.6,135.2,135.2C584.5,591.4,523.9,652.1,449.3,652.1z"/><path d="M550.7,821H111.4c-18.6,0-33.8-15.1-33.8-33.8V246.6c0-18.6,15.2-33.8,33.8-33.8h101.4c18.7,0,33.8-15.1,33.8-33.8s-15.1-33.8-33.8-33.8H111.4C55.5,145.2,10,190.7,10,246.6v540.7c0,55.9,45.5,101.4,101.4,101.4h439.3c18.7,0,33.8-15.1,33.8-33.8C584.5,836.1,569.4,821,550.7,821z"/><path d="M483.1,212.8H821c18.7,0,33.8,15.2,33.8,33.8v270.3c0,18.7,15.1,33.8,33.8,33.8c18.7,0,33.8-15.1,33.8-33.8V246.6c0-55.9-45.5-101.4-101.4-101.4H483.1c-18.7,0-33.8,15.1-33.8,33.8S464.4,212.8,483.1,212.8z"/><path d="M719.7,297.2c0,28,22.7,50.7,50.7,50.7s50.7-22.7,50.7-50.7c0-28-22.7-50.7-50.7-50.7S719.7,269.2,719.7,297.2z"/><path d="M280.3,111.4h135.2c18.7,0,33.8-15.1,33.8-33.8c0-18.7-15.1-33.8-33.8-33.8H280.3c-18.7,0-33.8,15.1-33.8,33.8C246.6,96.3,261.7,111.4,280.3,111.4z"/><path d="M956.2,753.4H854.8V652.1c0-18.7-15.1-33.8-33.8-33.8c-18.7,0-33.8,15.1-33.8,33.8v101.4H685.9c-18.7,0-33.8,15.1-33.8,33.8c0,18.7,15.1,33.8,33.8,33.8h101.4v101.4c0,18.7,15.1,33.8,33.8,33.8c18.7,0,33.8-15.1,33.8-33.8V821h101.4c18.7,0,33.8-15.1,33.8-33.8C990,768.6,974.9,753.4,956.2,753.4z"/></g>
    </symbol>

    <symbol id="people" viewBox="0 0 28 28">
        <path d="M1.75 17.1498C1.75 14.6672 6.80243 13.4165 9.33333 13.4165C11.8642 13.4165 16.9167 14.6672 16.9167 17.1498V20.4165H1.75V17.1498Z" fill="inherit"/>
        <path d="M13.4167 8.16683C13.4167 10.4229 11.5894 12.2502 9.33333 12.2502C7.07729 12.2502 5.25 10.4229 5.25 8.16683C5.25 5.91079 7.07729 4.0835 9.33333 4.0835C11.5894 4.0835 13.4167 5.91079 13.4167 8.16683Z" fill="inherit"/>
        <path d="M23.3333 10.5002C23.3333 12.1116 22.0281 13.4168 20.4167 13.4168C18.8052 13.4168 17.5 12.1116 17.5 10.5002C17.5 8.8887 18.8052 7.5835 20.4167 7.5835C22.0281 7.5835 23.3333 8.8887 23.3333 10.5002Z" fill="inherit"/>
        <path fill-rule="evenodd" clip-rule="evenodd" d="M18.0834 20.4168V17.1502C18.0834 16.3547 17.7733 15.6851 17.3363 15.1451C18.4156 14.7711 19.5907 14.5835 20.4167 14.5835C22.3636 14.5835 26.25 15.6257 26.25 17.6946V20.4168H18.0834Z" fill="inherit"/>
    </symbol>

    <symbol id="link" viewBox="0 0 32 32">
        <path d="M16.9147 13.872C16.5634 14.2233 16.5634 14.7867 16.9147 15.138C18.3662 16.5895 18.3662 18.9491 16.9147 20.4006L9.29246 28.0228C7.84093 29.4743 5.48136 29.4743 4.02983 28.0228L2.88318 26.8762C1.43165 25.4246 1.43165 23.0651 2.88318 21.6135L10.5054 13.9913C10.8567 13.64 10.8567 13.0767 10.5054 12.7254C10.1541 12.3741 9.59072 12.3741 9.23944 12.7254L1.61723 20.3476C0.576636 21.3882 0 22.7734 0 24.2448C0 25.7163 0.570008 27.1015 1.61723 28.1421L2.76388 29.2888C3.83761 30.3625 5.24938 30.8994 6.66114 30.8994C8.07291 30.8994 9.48467 30.3625 10.5584 29.2888L18.1806 21.6666C20.3281 19.5191 20.3281 16.0195 18.1806 13.872C17.836 13.5207 17.2659 13.5207 16.9147 13.872Z" fill="inherit"/>
        <path d="M30.3894 3.85735L29.2427 2.7107C27.0953 0.563229 23.5957 0.563229 21.4482 2.7107L13.826 10.3329C11.6785 12.4804 11.6785 15.98 13.826 18.1274C14.1773 18.4787 14.7407 18.4787 15.0919 18.1274C15.4432 17.7762 15.4432 17.2128 15.0919 16.8615C13.6404 15.41 13.6404 13.0504 15.0919 11.5989L22.7141 3.97665C24.1657 2.52512 26.5253 2.52512 27.9768 3.97665L29.1234 5.1233C30.575 6.57483 30.575 8.9344 29.1234 10.3859L21.5012 18.0081C21.1499 18.3594 21.1499 18.9228 21.5012 19.2741C21.6736 19.4464 21.9055 19.5392 22.1309 19.5392C22.3562 19.5392 22.5882 19.453 22.7605 19.2741L30.3827 11.6519C31.4233 10.6113 32 9.22603 32 7.75461C32 6.2832 31.43 4.89794 30.3894 3.85735Z" fill="inherit"/>
    </symbol>
</svg>
