<svg display="none" xmlns="http://www.w3.org/2000/svg">
    <symbol id="logout" viewBox="0 0 24 24" fill="none" stroke="currentColor" stroke-width="2" stroke-linecap="round" stroke-linejoin="round">
        <path d="M9 21H5a2 2 0 0 1-2-2V5a2 2 0 0 1 2-2h4"></path>
        <polyline points="16 17 21 12 16 7"></polyline>
        <line x1="21" y1="12" x2="9" y2="12">
        </line>
    </symbol>

    <symbol id="search" viewBox="0 0 487.95 487.95">
        <g>
            <path d="M481.8,453l-140-140.1c27.6-33.1,44.2-75.4,44.2-121.6C386,85.9,299.5,0.2,193.1,0.2S0,86,0,191.4s86.5,191.1,192.9,191.1
                c45.2,0,86.8-15.5,119.8-41.4l140.5,140.5c8.2,8.2,20.4,8.2,28.6,0C490,473.4,490,461.2,481.8,453z M41,191.4
                c0-82.8,68.2-150.1,151.9-150.1s151.9,67.3,151.9,150.1s-68.2,150.1-151.9,150.1S41,274.1,41,191.4z"/>
        </g>
    </symbol>

    <symbol id="categories" viewBox="0 0 24 24">
        <path d="M11.646 15.146L5.854 9.354a.5.5 0 01.353-.854h11.586a.5.5 0 01.353.854l-5.793 5.792a.5.5 0 01-.707 0z"/>
    </symbol>

    <symbol id="cross" viewBox="0 0 42 42">
        <path fill-rule="evenodd" d="M21.002,26.588l10.357,10.604c1.039,1.072,1.715,1.083,2.773,0l2.078-2.128
        c1.018-1.042,1.087-1.726,0-2.839L25.245,21L36.211,9.775c1.027-1.055,1.047-1.767,0-2.84l-2.078-2.127
        c-1.078-1.104-1.744-1.053-2.773,0L21.002,15.412L10.645,4.809c-1.029-1.053-1.695-1.104-2.773,0L5.794,6.936
        c-1.048,1.073-1.029,1.785,0,2.84L16.759,21L5.794,32.225c-1.087,1.113-1.029,1.797,0,2.839l2.077,2.128
        c1.049,1.083,1.725,1.072,2.773,0L21.002,26.588z"/>
    </symbol>

    <symbol id="plus" viewBox="0 0 455 455" style="enable-background:new 0 0 455 455;">
        <polygon points="455,212.5 242.5,212.5 242.5,0 212.5,0 212.5,212.5 0,212.5 0,242.5 212.5,242.5 212.5,455 242.5,455 242.5,242.5 
	    455,242.5 "/>
    </symbol>

    <symbol id="stroke-plus" viewBox="0 0 23 24">
        <path d="M11.741 2V22M21.3706 12H2.11133H21.3706Z" stroke="inherit" stroke-width="inherit" stroke-linecap="round" stroke-linejoin="round"/>
    </symbol>

    <symbol id="view" viewBox="0 0 17 10">
        <path d="M8.50054 3.04627C10.4315 3.04627 11.9969 4.60292 11.9969 6.52314C11.9969 8.44335 10.4315 10 8.50054 10C6.56954 10 5.00416 8.44335 5.00416 6.52314C5.00416 4.60292 6.56954 3.04627 8.50054 3.04627ZM8.50054 0C12.5332 0 16.0143 2.73803 16.9802 6.57508C17.0681 6.92435 16.8547 7.27836 16.5035 7.36579C16.1522 7.45322 15.7962 7.24096 15.7083 6.89169C14.8877 3.63155 11.9282 1.30382 8.50054 1.30382C5.07141 1.30382 2.111 3.63355 1.29176 6.89562C1.20403 7.24493 0.848156 7.45738 0.496883 7.37015C0.14561 7.28291 -0.0680368 6.92902 0.0196895 6.57971C0.983895 2.74039 4.46614 0 8.50054 0Z" fill="inherit"/>
    </symbol>

    <symbol id="star" viewBox="0 0 17 17">
        <path d="M13.379 17C13.2827 17 13.1859 16.9759 13.0973 16.9271L8.50003 14.3951L3.90273 16.9271C3.6987 17.0394 3.45151 17.0208 3.26507 16.8788C3.07858 16.7369 2.98524 16.4964 3.02418 16.2583L3.90215 10.8954L0.18286 7.09735C0.0178261 6.92882 -0.0415609 6.67672 0.0296453 6.44714C0.100852 6.21752 0.290347 6.05016 0.518449 6.01539L5.65842 5.23299L7.95707 0.353599C8.05904 0.137065 8.26956 0 8.50003 0C8.73046 0 8.94103 0.137065 9.04294 0.353599L11.3416 5.23299L16.4815 6.01539C16.7096 6.05016 16.8991 6.21747 16.9703 6.44714C17.0416 6.67672 16.9822 6.92882 16.8171 7.09735L13.0978 10.8954L13.9758 16.2584C14.0147 16.4963 13.9213 16.737 13.7349 16.8789C13.6294 16.9592 13.5046 17 13.379 17ZM1.90668 7.08614L4.97542 10.2198C5.11813 10.3655 5.18328 10.5755 5.14952 10.7812L4.4251 15.2061L8.21821 13.1169C8.39463 13.0197 8.60534 13.0197 8.78176 13.1169L12.5749 15.206L11.8504 10.7812C11.8167 10.5754 11.8818 10.3655 12.0245 10.2198L15.0933 7.08614L10.8525 6.44055C10.6553 6.4105 10.4848 6.2808 10.3966 6.09354L8.50008 2.06765L6.60353 6.09354C6.51537 6.28075 6.34481 6.4105 6.14761 6.44055L1.90668 7.08614Z" fill="inherit"/>
    </symbol>

    <symbol id="calendar" viewBox="0 0 20 20">
        <path d="M19.7253 2.86299H17.8428V1.42423C17.8428 0.638911 17.2039 0 16.4186 0C15.6332 0 14.9943 0.638911 14.9943 1.42423V2.86305H5.00567V1.42423C5.00567 0.638911 4.36676 0 3.58143 0C2.79611 0 2.1572 0.638911 2.1572 1.42423V2.86305H0.274706C0.123225 2.86299 0 2.98622 0 3.13776V19.1817C0 19.3332 0.123282 19.4565 0.274706 19.4565H19.7253C19.8768 19.4565 20 19.3332 20 19.1817V3.13776C20 2.98622 19.8768 2.86299 19.7253 2.86299ZM15.8489 1.59514C15.8489 1.2805 16.1039 1.02545 16.4186 1.02545C16.7332 1.02545 16.9883 1.2805 16.9883 1.59514V3.03396C16.9883 3.3486 16.7332 3.60365 16.4186 3.60365C16.1039 3.60365 15.8489 3.3486 15.8489 3.03396V1.59514ZM3.01174 1.59514C3.01174 1.2805 3.26679 1.02545 3.58143 1.02545C3.89608 1.02545 4.15113 1.2805 4.15113 1.59514V3.03396C4.15113 3.3486 3.89608 3.60365 3.58143 3.60365C3.26679 3.60365 3.01174 3.3486 3.01174 3.03396V1.59514ZM6.04673 15.1155C6.04673 15.4924 5.74126 15.7979 5.3644 15.7979H3.24173C2.86487 15.7979 2.5594 15.4925 2.5594 15.1155V12.9928C2.5594 12.6159 2.86487 12.3103 3.24173 12.3103H5.36446C5.74126 12.3103 6.04678 12.6158 6.04678 12.9928L6.04673 15.1155ZM6.04673 9.41857C6.04673 9.79537 5.74126 10.101 5.3644 10.101H3.24173C2.86487 10.101 2.5594 9.79559 2.5594 9.41857V7.29584C2.5594 6.91898 2.86487 6.61346 3.24173 6.61346H5.36446C5.74126 6.61346 6.04678 6.91893 6.04678 7.29584L6.04673 9.41857ZM11.7437 15.1155C11.7437 15.4924 11.4383 15.7979 11.0613 15.7979H8.93866C8.56181 15.7979 8.25634 15.4925 8.25634 15.1155V12.9928C8.25634 12.6159 8.56181 12.3103 8.93866 12.3103H11.0614C11.4382 12.3103 11.7437 12.6158 11.7437 12.9928V15.1155ZM11.7437 9.41857C11.7437 9.79537 11.4383 10.101 11.0613 10.101H8.93866C8.56181 10.101 8.25634 9.79559 8.25634 9.41857V7.29584C8.25634 6.91898 8.56181 6.61346 8.93866 6.61346H11.0614C11.4382 6.61346 11.7437 6.91893 11.7437 7.29584V9.41857ZM17.4407 15.1155C17.4407 15.4924 17.1352 15.7979 16.7583 15.7979H14.6356C14.2587 15.7979 13.9532 15.4925 13.9532 15.1155V12.9928C13.9532 12.6159 14.2586 12.3103 14.6356 12.3103H16.7583C17.1351 12.3103 17.4407 12.6158 17.4407 12.9928L17.4407 15.1155ZM17.4407 9.41857C17.4407 9.79537 17.1352 10.101 16.7583 10.101H14.6356C14.2587 10.101 13.9532 9.79559 13.9532 9.41857V7.29584C13.9532 6.91898 14.2586 6.61346 14.6356 6.61346H16.7583C17.1351 6.61346 17.4407 6.91893 17.4407 7.29584L17.4407 9.41857Z" fill="inherit"/>
    </symbol>

    <symbol id="geo" viewBox="0 0 14 20">
        <path d="M6 0C3.12726 0 0 3.12726 0 7C0 8.3503 0.431346 9.63965 1.03148 10.6992L5.59344 18.5947C5.87944 19.1104 6.45613 19.3683 7 19.3683C7.54392 19.3683 8.09243 19.1104 8.40656 18.5947L12.9685 10.7039C13.5733 9.64425 14 8.37834 14 7.00459C14 3.13195 10.8727 0 7 0ZM7 9.06765C5.59344 9.06765 4.44474 7.91895 4.44474 6.51239C4.44474 5.10583 5.59344 3.95713 7 3.95713C8.40656 3.95713 9.55526 5.10583 9.55526 6.51239C9.55526 7.92364 8.40656 9.06765 7 9.06765Z" fill="inherit"/>
    </symbol>

    <symbol id="star-selected" viewBox="0 0 17 17">
        <path d="M13.379 17C13.2827 17 13.1859 16.9759 13.0973 16.9271L8.50003 14.3951L3.90273 16.9271C3.6987 17.0394 3.45151 17.0208 3.26507 16.8788C3.07858 16.7369 2.98524 16.4964 3.02418 16.2583L3.90215 10.8954L0.18286 7.09735C0.0178261 6.92882 -0.0415609 6.67672 0.0296453 6.44714C0.100852 6.21752 0.290347 6.05016 0.518449 6.01539L5.65842 5.23299L7.95707 0.353599C8.05904 0.137065 8.26956 0 8.50003 0C8.73046 0 8.94103 0.137065 9.04294 0.353599L11.3416 5.23299L16.4815 6.01539C16.7096 6.05016 16.8991 6.21747 16.9703 6.44714C17.0416 6.67672 16.9822 6.92882 16.8171 7.09735L13.0978 10.8954L13.9758 16.2584C14.0147 16.4963 13.9213 16.737 13.7349 16.8789C13.6294 16.9592 13.5046 17 13.379 17Z" fill="inherit"/>
    </symbol>

    <symbol id="arrow-up" viewBox="0 0 18 10">
        <path d="M18 8.52174L16.4545 10L9 2.91304L1.54545 10L0 8.52174L9 0L18 8.52174Z" fill="inherit" fill-opacity="0.75"/>
    </symbol>

    <symbol id="pencil" viewBox="0 0 24 24">
        <path d="M18.9335 0L2.53331 16.4002L0 24L7.59975 21.4667L24 5.06653L18.9335 0ZM13.867 7.09308L14.8803 8.10637L5.18616 17.8005L4.17286 16.7873L13.867 7.09308ZM3.35306 21.3718L2.62823 20.647L3.47269 18.1137L5.88633 20.5274L3.35306 21.3718ZM7.2127 19.8271L6.19941 18.8138L15.8936 9.11967L16.9069 10.133L7.2127 19.8271ZM17.9202 9.11977L14.8802 6.07983L15.8935 5.06653L18.9335 8.10647L17.9202 9.11977ZM16.9068 4.05319L18.9334 2.02655L21.9734 5.06653L19.9468 7.09313L16.9068 4.05319Z" fill="inherit"/>
    </symbol>
</svg>
